<svg xmlns="http://www.w3.org/2000/svg" xmlns:xlink="http://www.w3.org/1999/xlink" version="1.1" x="0px" y="0px" viewBox="0 0 100 125" enable-background="new 0 0 100 100" xml:space="preserve"><symbol viewBox="-9.867 -45.645 19.733 91.123"><g><path fill="#000000" stroke="#000000" stroke-width="4" stroke-linecap="round" stroke-linejoin="round" stroke-miterlimit="10" d="    M0.32,18.715h-0.641c-2.434,0-4.426,1.992-4.426,4.426v15.911c0,2.434,1.992,4.426,4.426,4.426H0.32    c2.434,0,4.426-1.992,4.426-4.426V23.141C4.746,20.707,2.755,18.715,0.32,18.715z"/><polyline fill="#000000" stroke="#000000" stroke-width="4" stroke-linecap="round" stroke-linejoin="round" stroke-miterlimit="10" points="    -7.746,-32.552 -7.746,36.229 7.745,36.229 7.745,-32.552   "/><line fill="none" stroke="#000000" stroke-width="4" stroke-linecap="round" stroke-linejoin="round" stroke-miterlimit="10" x1="-7.746" y1="22.439" x2="7.745" y2="22.439"/><path fill="#000000" stroke="#000000" stroke-width="4" stroke-linecap="round" stroke-linejoin="round" stroke-miterlimit="10" d="    M-7.867-33.378l6.478-9.453c0.744-1.086,2.032-1.086,2.776,0l6.478,9.453H-7.867z"/></g></symbol><g display="none"><g display="inline"><rect x="-602" y="-246.767" fill="#000000" width="1180" height="1190.588"/><path fill="#000000" d="M578.51,944.608H-602.51V-247.554H578.51V944.608z M-601.49,943.035H577.49V-245.979H-601.49V943.035z"/></g></g><g><g><g><rect x="10.318" y="33.017" width="1.773" height="6"/><rect x="10.318" y="65.017" width="1.773" height="6"/><rect x="23.183" y="10.108" width="6" height="1.773"/><rect x="10.318" y="73.017" width="1.773" height="6"/><rect x="10.318" y="49.017" width="1.773" height="6"/><rect x="10.318" y="57.017" width="1.773" height="6"/><rect x="55.183" y="10.108" width="6" height="1.773"/><rect x="31.183" y="10.108" width="6" height="1.773"/><rect x="10.318" y="41.017" width="1.773" height="6"/><rect x="63.183" y="10.108" width="6" height="1.773"/><rect x="47.183" y="10.108" width="6" height="1.773"/><rect x="39.183" y="10.108" width="6" height="1.773"/><rect x="35.217" y="88.119" width="6" height="1.773"/><rect x="71.183" y="10.108" width="6" height="1.773"/><rect x="51.217" y="88.119" width="6" height="1.773"/><rect x="43.217" y="88.119" width="6" height="1.773"/><rect x="67.217" y="88.119" width="6" height="1.773"/><rect x="59.217" y="88.119" width="6" height="1.773"/><rect x="27.217" y="88.119" width="6" height="1.773"/><rect x="10.318" y="17.017" width="1.773" height="6"/><rect x="10.318" y="25.017" width="1.773" height="6"/><rect x="19.217" y="88.119" width="6" height="1.773"/><rect x="88.33" y="48.961" width="1.773" height="6"/><rect x="88.33" y="56.961" width="1.773" height="6"/><rect x="88.33" y="16.961" width="1.773" height="6"/><rect x="75.217" y="88.119" width="6" height="1.773"/><rect x="88.33" y="72.961" width="1.773" height="6"/><rect x="88.33" y="64.961" width="1.773" height="6"/><rect x="88.33" y="40.961" width="1.773" height="6"/><rect x="88.33" y="24.961" width="1.773" height="6"/><rect x="88.33" y="32.961" width="1.773" height="6"/><path d="M15.725,11.882h5.458v-1.773h-5.458V5.676H5V16.4h10.725V11.882z M13.951,14.627H6.773V7.449h7.178V14.627z"/><path d="M83.854,16.4h10.725V5.676H83.854v4.433h-4.671v1.773h4.671V16.4z M85.627,7.449h7.178v7.178h-7.178V7.449z"/><path d="M16.146,83.6h-4.054v-2.583h-1.773V83.6H5.422v10.725h10.724v-4.432h1.071v-1.773h-1.071V83.6z M14.372,92.551H7.195     v-7.178h7.177V92.551z"/><path d="M90.104,80.961H88.33V83.6h-4.055v4.519h-1.059v1.773h1.059v4.432H95V83.6h-4.896V80.961z M93.227,85.373v7.178h-7.178     v-7.178H93.227z"/></g><path d="M77.035,36.162L63.869,22.996c-4.895-4.895-12.859-4.895-17.754,0l-2.636,2.636c-0.324,0.324-0.61,0.646-0.879,0.968    L26.06,43.14c-0.12,0.068-0.236,0.147-0.338,0.249l-5.958,5.958c-0.004,0.004-0.007,0.01-0.011,0.014    c-0.069,0.07-0.13,0.145-0.183,0.225c-0.026,0.039-0.044,0.081-0.066,0.122c-0.027,0.049-0.057,0.097-0.078,0.147    c-0.021,0.052-0.034,0.106-0.049,0.159c-0.013,0.045-0.031,0.088-0.039,0.133c-0.02,0.102-0.031,0.205-0.031,0.309l-0.012,30.219    l30.411-0.074c0.024,0,0.045-0.006,0.069-0.007c0.079-0.004,0.158-0.009,0.236-0.024c0.048-0.01,0.094-0.028,0.141-0.042    c0.051-0.015,0.102-0.027,0.151-0.047c0.051-0.021,0.1-0.051,0.149-0.078c0.04-0.022,0.082-0.04,0.12-0.066    c0.072-0.048,0.139-0.105,0.204-0.167c0.011-0.01,0.023-0.017,0.034-0.028l0.003-0.002l0.001-0.001l4.205-4.205    c0.171-0.171,0.29-0.374,0.365-0.588l17.42-17.42c0.529-0.388,1.061-0.838,1.597-1.374l2.636-2.636    C81.93,49.021,81.93,41.057,77.035,36.162z M25.106,48.526l18.738-18.738l7.196,7.196L32.302,55.722    c-1.984,1.984-5.212,1.984-7.196,0C23.122,53.738,23.122,50.51,25.106,48.526z M53.412,39.356l7.196,7.196L41.87,65.29    c-1.984,1.984-5.212,1.984-7.196,0c-1.984-1.984-1.984-5.212,0-7.196L53.412,39.356z M22.429,77.535l0.003-6.74l6.723,6.723    L22.429,77.535z M33.566,77.507c-0.016-0.017-0.027-0.036-0.043-0.053L22.51,66.442c-0.024-0.024-0.052-0.041-0.077-0.063    l0.003-8.943c0.145,0.171,0.292,0.341,0.454,0.502c1.982,1.982,4.733,2.735,7.302,2.266c-0.469,2.569,0.284,5.32,2.266,7.302    c1.982,1.982,4.733,2.735,7.302,2.266c-0.469,2.569,0.284,5.32,2.266,7.302c0.146,0.146,0.301,0.278,0.455,0.411L33.566,77.507z     M51.438,74.858c-1.984,1.984-5.212,1.984-7.196,0c-1.984-1.984-1.984-5.212,0-7.196L62.98,48.924l7.196,7.196L51.438,74.858z     M72.503,54.016l-7.464-7.464l-2.06-2.06l-7.508-7.508l-2.06-2.06l-7.397-7.397l2.316-2.316c3.673-3.673,9.649-3.673,13.322,0    l13.166,13.166c3.673,3.673,3.673,9.649,0,13.322L72.503,54.016z"/></g></g><text x="0" y="115" fill="#000000" font-size="5px" font-weight="bold" font-family="'Helvetica Neue', Helvetica, Arial-Unicode, Arial, Sans-serif">Created by Oksana Latysheva</text><text x="0" y="120" fill="#000000" font-size="5px" font-weight="bold" font-family="'Helvetica Neue', Helvetica, Arial-Unicode, Arial, Sans-serif">from the Noun Project</text></svg>