<?xml version="1.0" encoding="utf-8"?>
<!-- Generator: Adobe Illustrator 24.1.2, SVG Export Plug-In . SVG Version: 6.00 Build 0)  -->
<svg version="1.1" id="Layer_1" xmlns="http://www.w3.org/2000/svg" xmlns:xlink="http://www.w3.org/1999/xlink" x="0px" y="0px"
	 viewBox="0 0 512 512" style="enable-background:new 0 0 512 512;" xml:space="preserve">
<style type="text/css">
	.st0{fill:#E6AF78;}
	.st1{fill:#EFF2FA;}
	.st2{fill:#D29B6E;}
	.st3{fill:#F0C087;}
	.st4{fill:#E4EAF6;}
	.st5{fill:#5B5D6E;}
	.st6{fill:#515262;}
	.st7{fill:#785550;}
	.st8{fill:#694B4B;}
	.st9{fill:#5A4146;}
</style>
<polygon class="st0" points="335.4,361.9 335.4,300.1 176.6,300.1 176.6,361.9 256,432.6 "/>
<path class="st1" d="M458.3,390.8l-109.2-25.7c-1.6-0.4-3.2-1-4.6-1.8L256,414.9l-85-54.1c-2.2,2.1-4.9,3.6-8,4.3L53.7,390.8
	c-16,3.8-27.2,18-27.2,34.4v69.1c0,9.8,7.9,17.7,17.7,17.7h423.7c9.8,0,17.7-7.9,17.7-17.7v-69.1
	C485.5,408.8,474.2,394.6,458.3,390.8z"/>
<path class="st2" d="M176.6,300.1v65.2c100.1,36.1,158.9-54.2,158.9-54.2v-11L176.6,300.1L176.6,300.1z"/>
<path class="st3" d="M141.2,97.1l7.7,169.2c0.7,15.8,8.5,30.5,21.1,40l36.5,27.4c9.2,6.9,20.3,10.6,31.8,10.6h35.3
	c11.5,0,22.6-3.7,31.8-10.6l36.5-27.4c12.7-9.5,20.4-24.2,21.1-40l7.7-169.2C370.8,97.1,141.2,97.1,141.2,97.1z"/>
<path class="st0" d="M229.5,132.4c35.3,0,88.3-8.8,100.8-35.3H141.2l7.7,169.2c0.7,15.8,8.5,30.5,21.1,40l36.5,27.4
	c9.2,6.9,20.3,10.6,31.8,10.6H256c-17.7,0-53-35.3-53-79.4c0-21.6,0-79.4,0-105.9C203,150.1,211.9,132.4,229.5,132.4z"/>
<g>
	<path class="st4" d="M91.3,454.7l-57.2-51.4c-4.8,6.1-7.6,13.7-7.6,21.9v69.1c0,9.8,7.9,17.7,17.7,17.7H106v-24.5
		C105.9,475,100.6,463.1,91.3,454.7z"/>
	<path class="st4" d="M420.7,454.7l57.2-51.4c4.8,6.1,7.6,13.7,7.6,21.9v69.1c0,9.8-7.9,17.7-17.7,17.7H406v-24.5
		C406.1,475,411.4,463.1,420.7,454.7z"/>
</g>
<polygon class="st5" points="278.1,512 233.9,512 239.5,432.6 272.6,432.6 "/>
<path class="st6" d="M278.1,414.9H234v16.6c0,5.5,4.4,9.9,9.9,9.9h24.4c5.5,0,9.9-4.4,9.9-9.9L278.1,414.9L278.1,414.9z"/>
<g>
	<path class="st4" d="M175.3,342.3l80.7,72.6c0,0-22.6,11.4-50.5,34.4c-5.8,4.7-14.5,2.8-17.5-4l-37.9-83.4l12-18
		C165.1,339.5,171.3,338.7,175.3,342.3z"/>
	<path class="st4" d="M336.7,342.3L256,414.9c0,0,22.6,11.4,50.5,34.4c5.8,4.7,14.5,2.8,17.5-4l37.9-83.4l-12-18
		C347,339.5,340.7,338.7,336.7,342.3z"/>
</g>
<path class="st7" d="M309.5,38.6l8.3,58.5c37.8,7.6,43.2,66.8,44,83.8c0.1,3.1,1.1,6,2.8,8.6l14.4,22.4c0,0-4.9-37,17.7-61.8
	C396.7,150.1,404.4,3.3,309.5,38.6z"/>
<path class="st3" d="M387.9,208.1l-10,39.9c-1.2,4.7-5.4,8-10.3,8l0,0c-5.4,0-9.9-4-10.5-9.3l-5.1-40.8
	c-1.4-10.9,7.1-20.6,18.1-20.6l0,0C382,185.4,390.7,196.6,387.9,208.1z"/>
<path class="st8" d="M149.7,22.8l13.1,8.9c-59,43.6-48,118.3-48,118.3c17.7,17.7,17.7,61.8,17.7,61.8l17.7-17.7
	c0,0-6.8-51,26.5-70.6c30.9-18.2,57.9-8.8,85.5-8.8c73.9,0,94.6-27.9,91-61.8c-2-17.5-28.8-54-97.2-52.9
	C228.4,0.5,176.6,8.9,149.7,22.8z"/>
<path class="st9" d="M144.6,107.1c0,0-9.4-37,18.2-75.3c-59,43.6-48,118.3-48,118.3c17.7,17.7,17.7,61.8,17.7,61.8l17.7-17.7
	c0,0-6.8-51,26.5-70.6c30.9-18.2,57.9-8.8,85.5-8.8c12,0,22.5-0.8,31.8-2.2C237,114.5,203.4,71.4,144.6,107.1z"/>
<path class="st0" d="M124.2,208.1l10,39.9c1.2,4.7,5.4,8,10.3,8l0,0c5.4,0,9.9-4,10.5-9.3l5.1-40.8c1.4-10.9-7.1-20.6-18.1-20.6l0,0
	C130,185.4,121.3,196.6,124.2,208.1z"/>
<path class="st4" d="M370.8,494.3H309c-4.9,0-8.8,4-8.8,8.8v8.8h79.4v-8.8C379.6,498.3,375.6,494.3,370.8,494.3z"/>
</svg>
