<?xml version="1.0" encoding="utf-8"?>
<!-- Generator: Adobe Illustrator 24.1.2, SVG Export Plug-In . SVG Version: 6.00 Build 0)  -->
<svg version="1.1" id="Capa_1" xmlns="http://www.w3.org/2000/svg" xmlns:xlink="http://www.w3.org/1999/xlink" x="0px" y="0px"
	 viewBox="0 0 364.5 364.5" style="enable-background:new 0 0 364.5 364.5;" xml:space="preserve">
<style type="text/css">
	.st0{fill:#DFCFBF;}
</style>
<g>
	<g>
		<path class="st0" d="M350.3,136.7c-1.9-2.2-5.2-2.6-7.6-1l-15.5,10v-126c-0.5-7.2-6.7-12.6-13.8-12.2c-0.1,0-0.2,0-0.2,0H43.3
			c-7.2-0.6-13.5,4.8-14.1,11.9c0,0.1,0,0.2,0,0.2v121l-7.4-4.8c-2.5-1.8-6-1.4-8,1c-9.1,11.1-14,25-13.8,39.4v125
			c0.3,27,15,55.9,56.2,55.9h252.2c27,0,56-14.7,56-56V176.2C365.1,161.7,360,147.5,350.3,136.7z M43.3,19.5h270c1.3,0,2,0.5,2,0
			v134.2l-133,86.2l-141-91.4L41.1,20.2C41.7,19.7,42.5,19.4,43.3,19.5z M14.3,314.5c-1.1-4.4-1.6-8.9-1.7-13.4l-0.2-125
			c-0.1-9.6,2.5-19,7.5-27.2l115,74.6L14.3,314.5z M308.4,345.1L308.4,345.1L56.2,345c-21,0-32-8.9-37.7-19l127-95.8l33.4,21.7
			c0.8,0.4,1.7,0.6,2.6,0.6c0.9,0,1.8-0.2,2.6-0.6l32.6-21.1l127.5,96C335.9,338.3,322.6,345.1,308.4,345.1z M352.3,176.1l-0.1,125
			c0,4.9-0.6,9.7-1.8,14.4L229,224l115.8-75.1C350.1,157,352.7,166.5,352.3,176.1z"/>
	</g>
</g>
<g>
	<g>
		<path class="st0" d="M207.3,55.1c-27-13.9-60.2-3.2-74.1,23.8c-4,7.8-6.1,16.4-6.1,25.2c0.2,30.3,24.9,54.8,55.2,54.8
			c4.5,0,8.9-0.6,13.3-1.7c1.6-0.2,3-1.2,3.8-2.6c0.8-1.3,1-2.9,0.5-4.4c-0.1-1.3-0.8-2.4-1.8-3.2c-1.4-1-3.2-1.3-4.9-0.9
			c-3.5,0.9-7.2,1.3-10.8,1.1c-24,0-43.6-19.4-43.6-43.4s19.4-43.6,43.4-43.6s43.6,19.4,43.6,43.4c0.1,6.9-1.6,13.8-4.9,19.9
			c-1.5,2.9-3.9,5.2-6.9,6.6h-1.2c-1.7,0-1.8-4.4-1.8-4.4v-21.9c0.8-16-11.4-29.6-27.4-30.4c-16-0.8-29.6,11.4-30.4,27.4
			c-0.1,1-0.1,2,0,3c-0.3,16.4,12.7,30,29,30.4c6.4,0,12.6-2.2,17.5-6.3v0.4c0.1,3,1,6,2.8,8.5c2.4,3.2,6.2,5,10.2,4.9
			c1.2,0.2,2.4,0.2,3.6,0c6.2-2,11.4-6.3,14.6-12v-0.5C245,102.2,234.4,69,207.3,55.1z M182.3,122.6L182.3,122.6
			c-9.7-0.2-17.4-8.4-17.1-18.2c0-0.1,0-0.3,0-0.4c-0.5-9.9,7.2-18.4,17.1-18.9c9.9,0.6,17.6,8.9,17.4,18.9
			C200,113.9,192.2,122.2,182.3,122.6z"/>
	</g>
</g>
</svg>
