<svg xmlns="http://www.w3.org/2000/svg" xmlns:xlink="http://www.w3.org/1999/xlink" version="1.1" x="0px" y="0px" viewBox="0 0 52 65" style="enable-background:new 0 0 52 52;" xml:space="preserve"><style type="text/css">
	.st0{fill:none;stroke:#000000;stroke-width:2;stroke-miterlimit:15;}
	.st1{fill:none;stroke:#000000;stroke-width:2;stroke-miterlimit:10;}
</style><g><g><path d="M25.2905273,44.4355469l-1.9936523-0.1611328c0.0073242-0.09375,0.199707-2.3212891,2.2329102-4.7070313    c1.402832-1.6464844,0.3608398-3.8105469,0.3500977-3.8320313l1.7939453-0.8847656    c0.0673828,0.1367188,1.625,3.3769531-0.621582,6.0136719C25.4658203,42.7255859,25.2919922,44.4179688,25.2905273,44.4355469z"/></g><g><path d="M12.421875,43.640625l-1.9980469-0.0800781c0.0019531-0.0498047,0.1958008-5.0185547,0.0048828-12.3759766    c-0.2148438-8.2695313,4.8876953-9.1435547,5.1049805-9.1767578l0.3017578,1.9765625l-0.1508789-0.9882813l0.1645508,0.9863281    c-0.1464844,0.0263672-3.5878906,0.7265625-3.4213867,7.1494141C12.6206055,38.5615234,12.4238281,43.5908203,12.421875,43.640625    z"/></g><g><path d="M18.4331055,37.9199219l-0.6035156-1.90625c1.5571289-0.4931641,1.2680664-2.4580078,0.9570313-3.5849609    c-0.1948242-0.7041016,0.0898438-1.4394531,0.7084961-1.8291016c0.3056641-0.1923828,1.0527344-0.734375,2.6171875-2.1914063    c0.8286133-0.7714844,1.2172852-1.484375,1.1552734-2.1191406c-0.0429688-0.4394531-0.2993164-0.8105469-0.5419922-1.0703125    l-7.9243164,5.2939453l-1.1113281-1.6621094l9.0839844-6.0693359l0.5473633,0.3398438    c0.1796875,0.1113281,1.7583008,1.1416016,1.9370117,2.9736328c0.1254883,1.2871094-0.4746094,2.5585938-1.7827148,3.7763672    c-1.1474609,1.0693359-2.0522461,1.8330078-2.6953125,2.2763672    C21.5083008,35.0722656,20.6411133,37.2207031,18.4331055,37.9199219z"/></g><g><polygon points="44,36.2929688 20.2890625,36.2929688 20.2890625,34.2929688 42,34.2929688 42,10.7851563 33.8881836,4     16.9941406,4 16.9941406,27.9589844 14.9941406,27.9589844 14.9941406,2 34.6147461,2 44,9.8515625   "/></g><g><path d="M25.5566406,50H8v-6.6494141h19.2949219L25.5566406,50z M10,48h14.0126953l0.6923828-2.6494141H10V48z"/></g><g><polygon points="43,12.3642578 33.0615234,12.3642578 33.0615234,3.6972656 35.0615234,3.6972656 35.0615234,10.3642578     43,10.3642578   "/></g><g><rect x="19.871582" y="7.9775391" width="8.8652344" height="2"/></g><g><rect x="19.871582" y="12.9775391" width="11.8637695" height="2"/></g><g><rect x="19.871582" y="17.9775391" width="14" height="2"/></g></g><text x="0" y="67" fill="#000000" font-size="5px" font-weight="bold" font-family="'Helvetica Neue', Helvetica, Arial-Unicode, Arial, Sans-serif">Created by DinosoftLab</text><text x="0" y="72" fill="#000000" font-size="5px" font-weight="bold" font-family="'Helvetica Neue', Helvetica, Arial-Unicode, Arial, Sans-serif">from the Noun Project</text></svg>