<?xml version="1.0" encoding="utf-8"?>
<!-- Generator: Adobe Illustrator 24.1.2, SVG Export Plug-In . SVG Version: 6.00 Build 0)  -->
<svg version="1.1" id="Calque_1" focusable="false" xmlns="http://www.w3.org/2000/svg" xmlns:xlink="http://www.w3.org/1999/xlink"
	 x="0px" y="0px" viewBox="0 0 448 512" style="enable-background:new 0 0 448 512;" xml:space="preserve">
<style type="text/css">
	.st0{fill:#212529;}
	.st1{fill:#FFFFFF;}
</style>
<path class="st0" d="M210.9,36.4L23.3,139.3c-7.8,4.3-14.2,15-14.2,23.9v204.6c0,8.9,6.3,19.7,14.2,23.9l187.5,102.9
	c7.8,4.3,20.6,4.3,28.4,0l187.5-102.9c7.8-4.3,14.2-15,14.2-23.9V163.2c0-8.9-6.3-19.7-14.2-23.9L239.3,36.4
	c-3.9-2.2-9.1-3.2-14.2-3.2C219.9,33.1,214.8,34.2,210.9,36.4z"/>
<path class="st1" d="M155.6,212.3c0.1,0,0.1,0,0.1,0C155.7,212.3,155.7,212.3,155.6,212.3z M155.5,212.3
	C155.5,212.3,155.6,212.3,155.5,212.3C155.5,212.3,155.5,212.3,155.5,212.3L155.5,212.3z M155.3,212.3
	C155.3,212.3,155.3,212.3,155.3,212.3C155.3,212.3,155.3,212.3,155.3,212.3C155.3,212.3,155.3,212.3,155.3,212.3z M108.3,253.2h15.4
	v-75.4h-15.4V253.2z M156.5,212.4C156.5,212.4,156.5,212.4,156.5,212.4C156.5,212.4,156.5,212.4,156.5,212.4z M156.3,212.4
	c0.1,0,0.2,0,0.2,0C156.4,212.4,156.3,212.4,156.3,212.4z M155.9,212.3c0.1,0,0.1,0,0.1,0C156,212.3,155.9,212.3,155.9,212.3z
	 M155.3,212.3v-22.6c3.1-0.4,6.6-0.6,9.6-0.6c11,0,14.8,3.3,14.8,11.7c0,9.6-5.6,12-15.1,12c-3,0-5.9-0.1-8.9-0.4
	c-0.1,0-0.1,0-0.1,0h-0.1c0,0-0.1,0-0.1,0h0.1h-0.1h-0.1c0,0,0,0,0.1,0h-0.1C155.4,212.3,155.3,212.3,155.3,212.3
	C155.3,212.3,155.3,212.3,155.3,212.3z M140,179.1v74.1h15.3v-28.8c2.7,0.2,6.1,0.3,9.2,0.3l15.5,28.4h17.6L180.4,223
	c8.9-2.7,14.5-9,14.5-22.3c0-20.4-13.7-23.7-30.3-23.7C155.5,177.1,146.6,177.9,140,179.1z M222.6,215.5c0-15.4,0.3-25.9,14.6-25.9
	c14.3,0,14.6,10.5,14.6,25.9c0,15.3-0.4,25.8-14.6,25.8C223,241.4,222.6,230.9,222.6,215.5z M207.1,215.5c0,27.3,6.7,38.5,30.2,38.5
	c23.4,0,30.2-11.2,30.2-38.5s-6.7-38.5-30.2-38.5C213.8,177.1,207.1,188.2,207.1,215.5z M281.8,188.5v64.7h13.8v-55.4l24,46.3
	c3.9,7.5,7.4,9.9,13,9.9c5.9,0,9.2-3.5,9.2-11.5v-64.7H328v55.2l-24-46.1c-3.8-7.3-7.8-9.9-13-9.9
	C285.3,177.1,281.8,180.5,281.8,188.5z"/>
<path class="st1" d="M152.4,281.3v32.3h-40.5v-32.3h-6v71.6h6v-34h40.5v34h6v-71.6H152.4z M335.6,281.3l-33.1,33.1v-33.1h-6v71.6h6
	v-35.2l33.8,35.2h8l-35.7-37l34.7-34.6H335.6z M202,288.6l14.2,38h-28.5L202,288.6z M197.8,284.6l-26.1,68.2h6.2l8-21.3h32.3
	l7.9,21.3h6.4l-25.8-68.2c-1-2.7-2.4-4.1-4.5-4.1C200.1,280.6,198.8,281.9,197.8,284.6z M238.6,317.1c0,25.4,5.6,36.5,28.6,36.5
	c5.9,0,11.2-0.6,15.7-1.5l-0.6-4.8c-4,0.6-7.9,1.1-12,1.1c-22.6,0-25.6-10.2-25.6-31.2c0-20.9,2.5-31.3,25.6-31.3
	c3.9,0,8.2,0.6,11.9,1.1l0.6-5c-4.5-0.9-9.9-1.4-15.7-1.4C244.2,280.6,238.6,291.6,238.6,317.1z"/>
</svg>
