<?xml version="1.0" encoding="utf-8"?>
<!-- Generator: Adobe Illustrator 24.1.2, SVG Export Plug-In . SVG Version: 6.00 Build 0)  -->
<svg version="1.1" id="Calque_1" focusable="false" xmlns="http://www.w3.org/2000/svg" xmlns:xlink="http://www.w3.org/1999/xlink"
	 x="0px" y="0px" viewBox="0 0 448 512" style="enable-background:new 0 0 448 512;" xml:space="preserve">
<style type="text/css">
	.st0{fill:#FFFFFF;}
</style>
<path class="st0" d="M105.7,451.6H17.1V166.2h88.8v285.4H105.7z M61.4,127.2C33,127.2,10,104.1,10,75.8s23-51.4,51.4-51.4
	c28.3,0,51.4,23.1,51.4,51.4C112.8,104.2,89.8,127.2,61.4,127.2z M438,451.6h-88.6V312.8c0-33.1-0.7-75.7-46.1-75.7
	c-46.2,0-53.3,36-53.3,73.3v141.2h-88.6V166.2h85v39h1.2c11.9-22.4,40.9-46.1,84-46.1c89.7,0,106.4,59.1,106.4,136V451.6z"/>
</svg>
