<?xml version="1.0" encoding="utf-8"?>
<!-- Generator: Adobe Illustrator 24.1.3, SVG Export Plug-In . SVG Version: 6.00 Build 0)  -->
<svg version="1.1" id="Calque_1" xmlns="http://www.w3.org/2000/svg" xmlns:xlink="http://www.w3.org/1999/xlink" x="0px" y="0px"
	 viewBox="0 0 100.5 73.7" style="enable-background:new 0 0 100.5 73.7;" xml:space="preserve">
<style type="text/css">
	.st0{fill:#FFFFFF;}
</style>
<g>
	<path class="st0" d="M100.5,3c0-0.3,0-0.3,0-0.7s0-0.3-0.3-0.7V1.3c0,0,0,0-0.3-0.3c0-0.3-0.3-0.3-0.3-0.3c-0.3,0-0.3-0.3-0.7-0.3
		s-0.3,0-0.7-0.3c-0.3,0-0.3,0-0.7,0c0,0,0,0-0.3,0H3.3H3C2.7,0,2.7,0,2.3,0S2,0,1.7,0.3C1.3,0.3,1.3,0.7,1,0.7S0.7,1,0.7,1
		s0,0-0.3,0.3v0.3C0.3,2,0,2,0,2.3S0,2.7,0,3c0,0,0,0.3,0,0.3v67c0,2,1.3,3.3,3.3,3.3h93.8c2,0,3.3-1.3,3.3-3.3v-67V3z M86.7,6.7
		L50.2,32.8L13.7,6.7H86.7z M6.7,67V9.7l41.5,29.8c0.7,0.3,1.3,0.7,2,0.7s1.3-0.3,2-0.7L93.8,9.7V67H6.7z"/>
</g>
</svg>
