<?xml version="1.0" encoding="utf-8"?>
<!-- Generator: Adobe Illustrator 24.1.2, SVG Export Plug-In . SVG Version: 6.00 Build 0)  -->
<svg version="1.1" id="Calque_1" xmlns="http://www.w3.org/2000/svg" xmlns:xlink="http://www.w3.org/1999/xlink" x="0px" y="0px"
	 viewBox="0 0 24 24" style="enable-background:new 0 0 24 24;" xml:space="preserve">
<style type="text/css">
	.st0{fill:#FFFFFF;}
</style>
<g>
	<path class="st0" d="M24,3l-1.9,1.9C22,5,21.8,5.2,22,5.3v13.5c0,0.2,0,0.5,0.2,0.5l1.9,1.9v0.5h-9.4v-0.5l1.9-1.9
		c0.2-0.2,0.2-0.3,0.2-0.5v-11l-5.3,13.6h-0.8L4.3,7.8v9.1c0,0.3,0,0.8,0.3,1.1l2.7,3.1v0.5h-7v-0.5l2.5-3C3,17.9,3,17.6,3,17.1V6.4
		c0-0.3-0.2-0.6-0.3-0.8L0.5,3V2.7h6.9l5.3,11.7l4.7-11.7H24V3z"/>
</g>
</svg>
